Cover:
=================================================================================== 
http://img824.imageshack.us/img824/7224/thebucketlist2007widesc.jpg
===================================================================================

Storyline:
===================================================================================
Corporate billionaire Edward Cole and working class mechanic Carter Chambers have nothing in common except for their terminal illnesses. While sharing a hospital room together, they decide to leave it and do all the things they have ever wanted to do before they die according to their bucket list. In the process, both of them heal each other, become unlikely friends, and ultimately find the joy in life.
===================================================================================

Cast:
===================================================================================
Jack Nicholson 	...Edward
Morgan Freeman 	...Carter
Sean Hayes 	...Thomas
Beverly Todd 	...Virginia
Rob Morrow 	...Dr. Hollins
Alfonso Freeman ...Roger
Rowena King 	...Angelica
===================================================================================

Video Specs:
===================================================================================
Format                           : AVC
Format/Info                      : Advanced Video Codec
Format profile                   : High@L2.2
Format settings, CABAC           : Yes
Format settings, ReFrames        : 4 frames
Format settings, GOP             : M=4, N=16
Codec ID                         : avc1
Codec ID/Info                    : Advanced Video Coding
Duration                         : 1h 37mn
Bit rate mode                    : Variable
Bit rate                         : 608 Kbps
Maximum bit rate                 : 3 160 Kbps
Width                            : 608 pixels
Height                           : 336 pixels
Display aspect ratio             : 16:9
Frame rate mode                  : Constant
Frame rate                       : 23.976 fps
Color space                      : YUV
Chroma subsampling               : 4:2:0
Bit depth                        : 8 bits
Scan type                        : Progressive
Bits/(Pixel*Frame)               : 0.124
Stream size                      : 421 MiB (84%)
Title                            : Video
===================================================================================

Audio Specs:
===================================================================================
Format                           : MPEG Audio
Format version                   : Version 1
Format profile                   : Layer 3
Mode                             : Joint stereo
Codec ID                         : 6B
Duration                         : 1h 37mn
Bit rate mode                    : Variable
Bit rate                         : 110 Kbps
Minimum bit rate                 : 32.0 Kbps
Maximum bit rate                 : 154 Kbps
Channel(s)                       : 2 channels
Sampling rate                    : 48.0 KHz
Stream size                      : 76.5 MiB (15%)
Writing library                  : LAME3.98r
Encoding settings                : -m j -V 5 -q 2 -lowpass 16.5 --vbr-new -b 32
Language                         : English
===================================================================================

Screens:
=================================================================================== 
http://img153.imageshack.us/img153/5042/vlcsnap2010121113h21m12.png 
http://img842.imageshack.us/img842/5820/vlcsnap2010121113h22m32.png 
http://img219.imageshack.us/img219/7225/vlcsnap2010121113h23m24.png 
http://img818.imageshack.us/img818/1417/vlcsnap2010121113h24m50.png 
http://img692.imageshack.us/img692/733/vlcsnap2010121113h26m44.png
===================================================================================
Enjoy!!